<svg xmlns="http://www.w3.org/2000/svg" width="430" height="430" style="width:100%;height:100%;transform:translate3d(0,0,0);content-visibility:visible" viewBox="0 0 430 430"><defs><clipPath id="c"><path d="M0 0h430v430H0z"/></clipPath><clipPath id="d"><path d="M0 0h430v430H0z"/></clipPath><filter id="a" width="100%" height="100%" x="0%" y="0%" filterUnits="objectBoundingBox"><feComponentTransfer in="SourceGraphic"><feFuncA tableValues="1.0 0.0" type="table"/></feComponentTransfer></filter><path id="b" fill-opacity="0" stroke="#08A88A" stroke-linecap="round" stroke-linejoin="round" stroke-width="19.6" d="M87.431 88.57 21.946 23.327" class="secondary" style="display:block" transform="rotate(45 -173.356 378.374)"/><mask id="e" mask-type="alpha"><g filter="url(#a)"><path fill="#fff" d="M0 0h430v430H0z" opacity="0"/><use xmlns:ns1="http://www.w3.org/1999/xlink" ns1:href="#b"/></g></mask></defs><g clip-path="url(#c)"><g fill="none" stroke-linecap="round" stroke-linejoin="round" stroke-width="12.04" clip-path="url(#d)" style="display:block"><g stroke="#121331" mask="url(#e)" style="display:block"><path d="M276.357 302.542H147.165m193.085-.01h55.72v-19.62c0-41.29-33.48-74.75-74.77-74.75h-11.41l-55.51-79.61c-3.39-5.09-10.25-8.3-17.75-8.3H122.02c-9.53 0-17.72 5.14-19.53 12.25l-23.082 75.721.002-.011c-28 1.06-50.38 24.1-50.38 52.37v41.95H83.3" class="primary"/><path d="M83.288 302.532c0 17.644 14.304 31.948 31.948 31.948s31.948-14.304 31.948-31.948-14.304-31.948-31.948-31.948-31.948 14.304-31.948 31.948zm193.064 0c0 17.644 14.304 31.948 31.948 31.948s31.948-14.304 31.948-31.948-14.304-31.948-31.948-31.948-31.948 14.304-31.948 31.948z" class="primary"/></g><path stroke="#08A88A" d="m0-72.621 16.79 16.789M0-72.621l-16.79 16.789M0 72.622l-16.79-16.79M0 72.622l16.79-16.79M0-72.622V72.622" class="secondary" style="display:block" transform="translate(211.761 303.542)"/></g></g></svg>